<svg xmlns="http://www.w3.org/2000/svg" width="441.21" height="74.365" viewBox="0 0 441.21 74.365">
  <g id="Group_383" data-name="Group 383" transform="translate(-768.745 -2952.609)">
    <path id="Path_45" data-name="Path 45" d="M-10316.312,1815.782s-146.294,122.968-418.127-13.509" transform="translate(11513.148 1159.808)" fill="none" stroke="#fe953a" stroke-width="1" stroke-dasharray="5 7"/>
    <path id="Icon_ionic-ios-arrow-down" data-name="Icon ionic-ios-arrow-down" d="M6.112,2.106l4.62,4.624a.87.87,0,0,0,1.233,0,.881.881,0,0,0,0-1.237L6.73.254a.872.872,0,0,0-1.2-.025L.255,5.49A.873.873,0,0,0,1.488,6.727Z" transform="translate(1204.526 2973.78) rotate(-129)" fill="#fe953a"/>
    <path id="Icon_ionic-ios-arrow-down-2" data-name="Icon ionic-ios-arrow-down" d="M6.112,2.106l4.62,4.624a.87.87,0,0,0,1.233,0,.881.881,0,0,0,0-1.237L6.73.254a.872.872,0,0,0-1.2-.025L.255,5.49A.873.873,0,0,0,1.488,6.727Z" transform="translate(768.745 2961.97) rotate(-50)" fill="#fe953a"/>
  </g>
</svg>
