<svg xmlns="http://www.w3.org/2000/svg" width="469.42" height="68.74" viewBox="0 0 469.42 68.74">
  <g id="Group_382" data-name="Group 382" transform="translate(-1153 -2597.743)">
    <path id="Path_46" data-name="Path 46" d="M-10314.778,1863.125s-166.787-136.917-440.223,0" transform="translate(11924.516 796)" fill="none" stroke="#fe953a" stroke-width="1" stroke-dasharray="5 7"/>
    <path id="Icon_ionic-ios-arrow-down" data-name="Icon ionic-ios-arrow-down" d="M6.891,2.374,12.1,7.588a.98.98,0,0,0,1.39,0,.993.993,0,0,0,0-1.395L7.588.287A.983.983,0,0,0,6.23.258L.287,6.189a.985.985,0,0,0,1.39,1.395Z" transform="translate(1607.531 2661.42) rotate(-50)" fill="#fe953a"/>
    <path id="Icon_ionic-ios-arrow-down-2" data-name="Icon ionic-ios-arrow-down" d="M6.891,2.374,12.1,7.588a.98.98,0,0,0,1.39,0,.993.993,0,0,0,0-1.395L7.588.287A.983.983,0,0,0,6.23.258L.287,6.189a.985.985,0,0,0,1.39,1.395Z" transform="translate(1160.095 2666.308) rotate(-121)" fill="#fe953a"/>
  </g>
</svg>
