<svg xmlns="http://www.w3.org/2000/svg" width="32.855" height="32.855" viewBox="0 0 32.855 32.855"><path d="M157.017,149.2a4.328,4.328,0,0,1,.493-1.429,2.857,2.857,0,0,1,.969-1.01,2.821,2.821,0,0,1,1.47-.378,2.75,2.75,0,0,1,1.068.214,2.594,2.594,0,0,1,1.4,1.462,3.2,3.2,0,0,1,.222,1.051h2.941a5.877,5.877,0,0,0-.452-2.119,4.916,4.916,0,0,0-1.158-1.659,5.09,5.09,0,0,0-1.774-1.076,6.576,6.576,0,0,0-2.292-.386,6.5,6.5,0,0,0-2.785.55,5.554,5.554,0,0,0-1.971,1.511,6.354,6.354,0,0,0-1.175,2.226,9.271,9.271,0,0,0-.378,2.686v.452a9.287,9.287,0,0,0,.386,2.694,6.246,6.246,0,0,0,1.175,2.218,5.586,5.586,0,0,0,1.98,1.5,6.568,6.568,0,0,0,2.793.55,6.08,6.08,0,0,0,2.168-.378,5.781,5.781,0,0,0,1.774-1.043,5.014,5.014,0,0,0,1.216-1.544,4.542,4.542,0,0,0,.493-1.889h-2.941a2.339,2.339,0,0,1-.246.953,2.3,2.3,0,0,1-.591.747,2.763,2.763,0,0,1-.862.485,3.039,3.039,0,0,1-.994.164,2.866,2.866,0,0,1-1.47-.386,2.9,2.9,0,0,1-.977-1.019,4.309,4.309,0,0,1-.493-1.437,9.693,9.693,0,0,1-.123-1.618v-.452A9.853,9.853,0,0,1,157.017,149.2Z" transform="translate(-143.743 -134.64)"/><path d="M16.428,0A16.428,16.428,0,1,0,32.855,16.428,16.423,16.423,0,0,0,16.428,0Zm0,29.57A13.142,13.142,0,1,1,29.57,16.428,13.16,13.16,0,0,1,16.428,29.57Z"/></svg>