<svg xmlns="http://www.w3.org/2000/svg" width="13.003" height="12.461" viewBox="0 0 13.003 12.461"><g transform="translate(13.003 12.461) rotate(180)"><g transform="translate(0 0)"><g transform="translate(0 0)"><path d="M13,7.45a1.2,1.2,0,0,0-.353-.853A1.345,1.345,0,0,0,13,5.563a1.4,1.4,0,0,0-1.413-1.228H8.238a7.79,7.79,0,0,0,.431-2.167A2.214,2.214,0,0,0,7.043,0a1.7,1.7,0,0,0-.982.33.271.271,0,0,0-.1.212V2.379L4.4,5.759l-.064.033v-.1a.271.271,0,0,0-.271-.271H1.354A1.356,1.356,0,0,0,0,6.773v4.334a1.356,1.356,0,0,0,1.354,1.354H2.98a1.358,1.358,0,0,0,1.275-.9,3.532,3.532,0,0,0,1.434.354h4.973a1.246,1.246,0,0,0,1.228-.946,1.223,1.223,0,0,0-.1-.814,1.214,1.214,0,0,0,.542-1.625A1.214,1.214,0,0,0,13,7.45Zm-1.143.669a.271.271,0,0,0-.155.466.671.671,0,0,1-.386,1.159.271.271,0,0,0-.155.466.67.67,0,0,1,.2.646.7.7,0,0,1-.7.521H5.689a2.568,2.568,0,0,1-1.434-.463.271.271,0,0,0-.463.192.814.814,0,0,1-.813.813H1.354a.814.814,0,0,1-.813-.813V6.773a.814.814,0,0,1,.813-.813H3.793v.271a.272.272,0,0,0,.129.231.277.277,0,0,0,.263.011L4.727,6.2a.271.271,0,0,0,.125-.128L6.477,2.552A.276.276,0,0,0,6.5,2.438V.689A1.142,1.142,0,0,1,7.043.542,1.789,1.789,0,0,1,8.127,2.167,8.436,8.436,0,0,1,7.6,4.509a.27.27,0,0,0,.253.367h3.728a.855.855,0,0,1,.873.736.809.809,0,0,1-.386.767.271.271,0,0,0,.018.472.671.671,0,0,1-.23,1.267Z"/></g></g><g transform="translate(3.793 5.96)"><g transform="translate(0 0)"><path d="M.271,0A.271.271,0,0,0,0,.271V5.147a.271.271,0,1,0,.542,0V.271A.271.271,0,0,0,.271,0Z" transform="translate(0 0)"/></g></g></g></svg>