<svg xmlns="http://www.w3.org/2000/svg" width="32" height="32" viewBox="0 0 32 32"><defs><style>.a{fill:#4a7aff;}.b{fill:#0053bf;}.c{fill:#fff;}.d{fill:#dce1eb;}</style></defs><path class="a" d="M32,16A16,16,0,1,1,16,0,16,16,0,0,1,32,16Zm0,0"/><path class="b" d="M151.948,102.589a16,16,0,0,0,15.3-15.984c0-.062,0-.124,0-.187L156.137,75.313,144.262,87.725l6.6,6.6-3.042,4.136Zm0,0" transform="translate(-135.246 -70.606)"/><path class="c" d="M156.133,71.394v3.623s-4.16-.6-4.16,2.08V79.78h3.757l-.469,4.093h-3.288V94.54h-4.16V83.873l-3.556-.067V79.78h3.489V76.694s-.23-4.591,4.294-5.434A12.088,12.088,0,0,1,156.133,71.394Zm0,0" transform="translate(-135.242 -66.687)"/><path class="d" d="M260.558,75.017V71.393a12.088,12.088,0,0,0-4.093-.134,6.343,6.343,0,0,0-.821.209V94.54h.754V83.872h3.287l.47-4.093H256.4V77.1C256.4,74.413,260.558,75.017,260.558,75.017Zm0,0" transform="translate(-239.667 -66.686)"/></svg>