<svg xmlns="http://www.w3.org/2000/svg" xmlns:xlink="http://www.w3.org/1999/xlink" width="1520.18" height="737.088" viewBox="0 0 1520.18 737.088"><defs><style>.a,.e,.h{fill:none;}.a{stroke:#707070;}.b{fill:url(#a);}.c{clip-path:url(#b);}.d{opacity:0.19;}.e{stroke:#f3f3f3;stroke-width:39px;opacity:0.32;}.f{clip-path:url(#c);}.g{stroke:none;}</style><linearGradient id="a" y1="0.5" x2="1" y2="0.5" gradientUnits="objectBoundingBox"><stop offset="0" stop-color="#ff5d4b"/><stop offset="1" stop-color="#ff3c68"/></linearGradient><clipPath id="b"><path class="a" d="M3604.229,9720.136l.68,610.864H3131.34V9720.136Z" transform="translate(-1685 373)"/></clipPath><clipPath id="c"><path class="a" d="M3013.791,9685.865v447.71H2262.324v-290.55s26.59-54.229,180.607-69.167c47.129-4.571,121.439-19.046,198.43-30.76C2815.6,9716.589,3013.791,9685.865,3013.791,9685.865Z" transform="translate(-1685 373)"/></clipPath></defs><g transform="translate(-399.729 -9967.5)"><path class="b" d="M2692.782,2156.609,1529.3,2335.982s-95.937,7.77-147.957,41.55c0,0-37.835,14.864-84.452,116.206l-114.854,224.3s-24.321,53.373,8.107,115.529c0,0,33.106,52.022,84.452,57.427l134.446,2.7H2692.782Z" transform="translate(-773.552 7810.891)"/><g class="c"><g class="d" transform="translate(1462.729 8158)"><g class="e" transform="translate(132.153 2114.153)"><circle class="g" cx="236.87" cy="236.87" r="236.87"/><circle class="h" cx="236.87" cy="236.87" r="217.37"/></g><g class="e" transform="translate(202.914 2184.914)"><circle class="g" cx="166.109" cy="166.109" r="166.109"/><circle class="h" cx="166.109" cy="166.109" r="146.609"/></g><g class="e" transform="translate(47 2029)"><circle class="g" cx="322.023" cy="322.023" r="322.023"/><circle class="h" cx="322.023" cy="322.023" r="302.523"/></g></g></g><g class="f"><g transform="translate(-0.771 266.5)"><g class="d" transform="translate(590.977 7539.5)"><g class="e" transform="translate(132.153 2114.153)"><circle class="g" cx="236.87" cy="236.87" r="236.87"/><circle class="h" cx="236.87" cy="236.87" r="217.37"/></g><g class="e" transform="translate(202.914 2184.914)"><circle class="g" cx="166.109" cy="166.109" r="166.109"/><circle class="h" cx="166.109" cy="166.109" r="146.609"/></g><g class="e" transform="translate(47 2029)"><circle class="g" cx="322.023" cy="322.023" r="322.023"/><circle class="h" cx="322.023" cy="322.023" r="302.523"/></g></g></g></g></g></svg>