<svg xmlns="http://www.w3.org/2000/svg" xmlns:xlink="http://www.w3.org/1999/xlink" width="385.68" height="872.692" viewBox="0 0 385.68 872.692"><defs><style>.a,.e,.g{fill:none;}.a{stroke:#707070;}.b{clip-path:url(#a);}.c{fill:url(#b);}.d{opacity:0.19;}.e{stroke:#f3f3f3;stroke-width:39px;opacity:0.32;}.f{stroke:none;}</style><clipPath id="a"><path class="a" d="M20117-100.438h385.68V772.254H20117Z" transform="translate(-20117 373)"/></clipPath><linearGradient id="b" x1="0.5" x2="0.5" y2="1" gradientUnits="objectBoundingBox"><stop offset="0" stop-color="#ff5959"/><stop offset="1" stop-color="#fe953a"/></linearGradient></defs><g class="b" transform="translate(0 -272.562)"><g transform="translate(-3 -1634.321)"><path class="c" d="M-669.652,1900.585l236.458,95.973s98.2,17.855,109.364,131.683c0,0,3.347,30.13-18.972,81.464l-135.029,339.25s-10.044,45.754-77,82.581l-114.82,46.871V1900.585" transform="translate(669.652 32.915)"/><g class="d" transform="translate(-128 36)"><g class="e" transform="translate(118 2100)"><circle class="f" cx="197.5" cy="197.5" r="197.5"/><circle class="g" cx="197.5" cy="197.5" r="178"/></g><g class="e" transform="translate(177 2159)"><circle class="f" cx="138.5" cy="138.5" r="138.5"/><circle class="g" cx="138.5" cy="138.5" r="119"/></g><g class="e" transform="translate(47 2029)"><circle class="f" cx="268.5" cy="268.5" r="268.5"/><circle class="g" cx="268.5" cy="268.5" r="249"/></g></g></g></g></svg>