<svg xmlns="http://www.w3.org/2000/svg" width="13.003" height="12.461" viewBox="0 0 13.003 12.461"><g transform="translate(0 0)"><g transform="translate(0 0)"><path d="M13,18.117a1.2,1.2,0,0,0-.353-.853A1.345,1.345,0,0,0,13,16.23,1.4,1.4,0,0,0,11.584,15H8.238a7.79,7.79,0,0,0,.431-2.167,2.214,2.214,0,0,0-1.625-2.167,1.7,1.7,0,0,0-.982.33.271.271,0,0,0-.1.212v1.837L4.4,16.426l-.064.033v-.1a.271.271,0,0,0-.271-.271H1.354A1.356,1.356,0,0,0,0,17.44v4.334a1.356,1.356,0,0,0,1.354,1.354H2.98a1.358,1.358,0,0,0,1.275-.9,3.532,3.532,0,0,0,1.434.354h4.973a1.246,1.246,0,0,0,1.228-.946,1.223,1.223,0,0,0-.1-.814,1.214,1.214,0,0,0,.542-1.625A1.214,1.214,0,0,0,13,18.117Zm-1.143.669a.271.271,0,0,0-.155.466.671.671,0,0,1-.386,1.159.271.271,0,0,0-.155.466.67.67,0,0,1,.2.646.7.7,0,0,1-.7.521H5.689a2.568,2.568,0,0,1-1.434-.463.271.271,0,0,0-.463.192.814.814,0,0,1-.813.813H1.354a.814.814,0,0,1-.813-.813V17.44a.814.814,0,0,1,.813-.813H3.793V16.9a.272.272,0,0,0,.129.231.277.277,0,0,0,.263.011l.542-.271a.271.271,0,0,0,.125-.128l1.625-3.522a.276.276,0,0,0,.025-.114V11.356a1.142,1.142,0,0,1,.542-.147,1.789,1.789,0,0,1,1.084,1.625A8.436,8.436,0,0,1,7.6,15.176a.27.27,0,0,0,.253.367h3.728a.855.855,0,0,1,.873.736.809.809,0,0,1-.386.767.271.271,0,0,0,.018.472.671.671,0,0,1-.23,1.267Z" transform="translate(0 -10.667)"/></g></g><g transform="translate(3.793 5.96)"><g transform="translate(0 0)"><path d="M149.6,245.333a.271.271,0,0,0-.271.271v4.876a.271.271,0,1,0,.542,0V245.6A.271.271,0,0,0,149.6,245.333Z" transform="translate(-149.333 -245.333)"/></g></g></svg>