<?xml version="1.0" encoding="utf-8"?>
<!-- Generator: Adobe Illustrator 26.0.0, SVG Export Plug-In . SVG Version: 6.00 Build 0)  -->
<svg version="1.1" id="Layer_1" xmlns="http://www.w3.org/2000/svg" xmlns:xlink="http://www.w3.org/1999/xlink" x="0px" y="0px"
	 viewBox="0 0 720.6 644.4" style="enable-background:new 0 0 720.6 644.4;" xml:space="preserve">
<style type="text/css">
	.st0{fill:#666666;}
	.st1{fill:url(#SVGID_1_);}
	.st2{fill:url(#SVGID_00000076597075664867384490000014400082514955850918_);}
	.st3{fill:#EB506A;}
</style>
<g>
	<path class="st0" d="M392.9,243.9c-2.4,2.4-3.7,5.4-3.7,8.8c0,3.4,1.2,6.3,3.7,8.8s5.4,3.7,8.8,3.7c3.5,0,6.4-1.2,8.8-3.7
		s3.7-5.4,3.7-8.8c0-3.5-1.2-6.4-3.7-8.8s-5.4-3.7-8.8-3.7C398.3,240.2,395.3,241.4,392.9,243.9z"/>
	<path class="st0" d="M422.8,243.7c-2.4,2.4-3.7,5.4-3.7,8.8c0,3.4,1.2,6.3,3.7,8.8c2.5,2.5,5.4,3.7,8.8,3.7c3.4,0,6.4-1.2,8.8-3.7
		s3.7-5.4,3.7-8.8c0-3.5-1.2-6.4-3.7-8.8s-5.4-3.7-8.8-3.7C428.1,240.1,425.2,241.3,422.8,243.7z"/>
	<path class="st0" d="M705.9,280.6c-2.9-2.9-6.7-4.4-11.2-4.4H647c-4.5,0-8.3,1.5-11.2,4.4c-3,2.9-4.4,6.7-4.4,11.2v15.7
		c0,4.4,1.5,8.1,4.6,11.1c3,3,6.8,4.5,11.1,4.5h-30.7v-21.6c0-4.5-1.4-8.1-4.3-11s-6.6-4.3-11.2-4.3h-46.5v-16h68v-22h-84.5
		c-4.3,0-8,1.5-11,4.5s-4.5,6.7-4.5,11v43.5h62v16h-74.7h-2.3v-37h-31v74h-16v22h31.3c4.4,0,8.2-1.5,11.2-4.4s4.5-6.6,4.5-11v-21.6
		h2.6H601c4.4,0,8.1-1.5,11.1-4.5c0.9-0.9,1.6-1.8,2.2-2.8v7.4h2.3h2.4h75.7c4.8,0,8.7-1.8,11.7-5.4c2.6-3.1,3.9-6.5,3.9-10.3v-37.7
		C710.3,287.2,708.8,283.5,705.9,280.6z M678.3,323.1c-4.4,0-8.2-1.5-11.3-4.5s-4.7-6.7-4.7-11.1v-9.3h16V323.1z"/>
	<path class="st0" d="M671,260.4c3.4,0,6.4-1.2,8.8-3.7c2.4-2.4,3.7-5.4,3.7-8.8c0-3.5-1.2-6.4-3.7-8.8s-5.4-3.7-8.8-3.7
		c-3.4,0-6.4,1.2-8.8,3.7s-3.7,5.4-3.7,8.8c0,3.4,1.2,6.3,3.7,8.8C664.7,259.1,667.6,260.4,671,260.4z"/>
	<rect x="85.3" y="271.2" class="st0" width="30" height="79"/>
	<path class="st0" d="M100.5,233.5c-4,0-7.5,1.5-10.4,4.5c-3,3-4.5,6.5-4.5,10.6c0,1.8,0.3,3.5,1,5.1c-3.8-5.2-8.6-9.2-14.3-12.1
		c-6-3-12.4-4.5-19.2-4.5c-6.9,0-13.4,1.2-19.4,3.7s-10.9,6.3-14.4,11.5c-3,4.6-5.3,9.9-6.7,16c-1.5,6.1-2.2,12.2-2.2,18.5
		l-0.2,63.5h34.2v-29h10v-30h-10v-12.6c0-2.5,0.6-4.8,1.7-6.9c1.2-2.1,2.9-3.2,5.3-3.2c1.7,0,3.2,0.6,4.7,1.7
		c1.5,1.1,2.5,2.5,3.1,4.2c2.4-1.9,5.9-4.4,10.5-7.6c8.9-6.2,14.7-10.3,17.2-12.3c0.8,1.7,1.9,3.3,3.3,4.7c3.1,3,6.5,4.5,10.4,4.5
		s7.3-1.5,10.3-4.5c3-3,4.5-6.5,4.5-10.4c0-4.1-1.5-7.7-4.5-10.7C108,235,104.5,233.5,100.5,233.5z"/>
	<path class="st0" d="M187.3,298.8l14.7-27.6h-31.3l-6.8,12.9c-1,2.1-2.2,4.3-3.3,6.6c-1.2,2.3-2.3,4.3-3.3,6v-57.5h-30v111h30v-49
		l18,49h32.4L187.3,298.8z"/>
	<path class="st0" d="M217.9,281.4c-2.5,3.4-4.4,7.5-5.7,12.2s-2,9.3-2,13.9l-0.1,42.8h30.2v-36.8c0-3.4,0.7-6.4,2.2-8.8
		c1.4-2.4,3.7-3.7,6.8-3.7c1.2,0,2.1,0.1,2.8,0.2c0.7,0.2,1.5,0.3,2.3,0.4v-31.8c-1.9-0.2-3.7-0.4-5.3-0.7c-1.7-0.3-3.5-0.4-5.5-0.4
		C232.9,268.6,224.4,272.9,217.9,281.4z"/>
</g>
<g>
	
		<linearGradient id="SVGID_1_" gradientUnits="userSpaceOnUse" x1="358.1159" y1="308.053" x2="358.1159" y2="286.053" gradientTransform="matrix(1 0 0 -1 0 644.4138)">
		<stop  offset="0" style="stop-color:#EB506A"/>
		<stop  offset="1" style="stop-color:#EB506A"/>
	</linearGradient>
	<rect x="347.1" y="319.4" class="st1" width="22" height="34"/>
	<g>
		
			<linearGradient id="SVGID_00000179633941320428810240000011958402919848528820_" gradientUnits="userSpaceOnUse" x1="357.1159" y1="62.3933" x2="357.1159" y2="609.871" gradientTransform="matrix(1 0 0 -1 0 644.4138)">
			<stop  offset="0.6069" style="stop-color:#EB506A"/>
			<stop  offset="0.6666" style="stop-color:#EC6064"/>
			<stop  offset="0.8022" style="stop-color:#EE7E59"/>
			<stop  offset="0.9181" style="stop-color:#F09052"/>
			<stop  offset="1" style="stop-color:#F09750"/>
		</linearGradient>
		<path style="fill:url(#SVGID_00000179633941320428810240000011958402919848528820_);" d="M357.1,41.4
			c105.1,0,191.5,80.4,201.1,183h30.1c-9.7-119.2-109.5-213-231.2-213s-221.5,93.8-231.2,213H156C165.6,121.7,252,41.4,357.1,41.4z"
			/>
		<path class="st3" d="M455.5,419.8h-53.4v-70.4l0.6-34.2c0-6.5,1.1-11.1,3.2-13.7s5-3.9,8.5-3.9c3.3,0,6.1,1.2,8.4,3.6
			c2.3,2.4,3.5,5.2,3.5,8.4c0,3.1-1.1,5.7-3.3,7.9s-4.9,3.2-8.1,3.2c-1,0-2-0.1-3-0.4c-1.1-0.3-2.2-0.7-3.3-1.2v30.6l6.8,0.5
			c11.3,0,21.1-4,29.2-12.1s12.3-17.7,12.3-28.8c0-11.2-4.1-20.9-12.4-29c-8.2-8.1-18.1-12.2-29.5-12.2c-6.5,0-12.3,1.4-17.7,4.1
			c-5.3,2.7-10.3,6.6-15,11.7c-3.7,4.3-6.3,9.4-7.9,15.3c-1.3,4.9-1.9,10.6-1.9,17.2l0.5,33.1v70.4h-29v-70.4l0.1-32.7
			c0-6.5-0.6-12.3-1.9-17.2c-1.6-5.9-4.2-11-7.8-15.3c-4.6-5.1-9.5-9-14.7-11.7c-5.2-2.7-11-4.1-17.4-4.1c-11.2,0-20.9,4.1-29,12.2
			c-8.1,8.1-12.2,17.8-12.2,29c0,11.1,4,20.7,12.1,28.8c8.1,8.1,17.7,12.1,28.8,12.1l6.7-0.5v-30.6c-1.2,0.5-2.2,0.9-3.3,1.2
			c-1,0.3-2,0.4-3,0.4c-3.1,0-5.8-1.1-8-3.2s-3.3-4.8-3.3-7.9c0-3.2,1.1-6,3.4-8.4c2.3-2.4,5-3.6,8.3-3.6c3.4,0,6.2,1.3,8.3,3.9
			c2.1,2.6,3.2,7.2,3.2,13.7l0.5,33.8v70.4h-56.4c-11.5-6.4-22.3-13.9-32.3-22.4h-42.8c13.5,15.2,29,28.7,46.1,39.9
			c-2.9,6.5-4.6,14.3-4.6,22.8l0,0c0,11.8,3.3,22.4,8.6,29.7c-5.3,7.4-8.7,18-8.7,29.8l0,0c0,22.2,11.8,40.3,26.5,40.3h0.4
			c15.7,42.9,56.9,73.5,105.2,73.5s89.5-30.6,105.2-73.5h1.3c14.6,0,26.4-18,26.4-40.3l0,0c0-11.8-3.3-22.4-8.6-29.7
			c5.3-7.4,8.7-18,8.7-29.8l0,0c0-8.7-1.8-16.7-4.9-23.3c16.8-11.1,32-24.4,45.4-39.4h-42.8C477.9,405.8,467,413.3,455.5,419.8z
			 M357.2,611.7c-35.7,0-66.5-21.2-80.4-51.8h160.8C423.7,590.4,392.9,611.7,357.2,611.7z M460,536.9H255.8
			c-6.7,0-12.2-8.3-12.2-18.6c0-8.7,3.9-16,9.2-18H463c5.3,2,9.2,9.3,9.2,18C472.2,528.6,466.8,536.9,460,536.9z M460.1,477.4H255.9
			c-6.7,0-12.2-8.3-12.2-18.6s5.5-18.6,12.2-18.6h204.2c6.7,0,12.2,8.3,12.2,18.6C472.3,469.1,466.8,477.4,460.1,477.4z"/>
	</g>
</g>
</svg>
