<svg xmlns="http://www.w3.org/2000/svg" xmlns:xlink="http://www.w3.org/1999/xlink" width="772.598" height="383.214" viewBox="0 0 772.598 383.214"><defs><style>.a,.g,.i{fill:none;}.a,.b{stroke:#707070;}.b{fill:#fff;}.c{clip-path:url(#a);}.d{clip-path:url(#b);}.e{fill:url(#c);}.f{opacity:0.19;}.g{stroke:#f3f3f3;stroke-width:39px;opacity:0.32;}.h{stroke:none;}</style><clipPath id="a"><path class="a" d="M20506.459,1174v383.214h772.6V1174Z" transform="translate(-20117 -1174)"/></clipPath><clipPath id="b"><rect class="b" width="920" height="402" transform="translate(240)"/></clipPath><linearGradient id="c" x1="0.5" x2="0.5" y2="1" gradientUnits="objectBoundingBox"><stop offset="0" stop-color="#ff5959"/><stop offset="1" stop-color="#fe953a"/></linearGradient></defs><g class="c" transform="translate(-389.459)"><g class="d"><g transform="matrix(-0.105, 0.995, -0.995, -0.105, 3089.787, 199.375)"><path class="e" d="M-669.652,1900.585l236.458,95.973s98.2,17.855,109.364,131.683c0,0,3.347,30.13-18.972,81.464l-135.029,339.25s-10.044,45.754-77,82.581l-114.82,46.871V1900.585" transform="translate(669.652 32.915)"/><g class="f" transform="translate(-128 36)"><g class="g" transform="translate(118 2100)"><circle class="h" cx="197.5" cy="197.5" r="197.5"/><circle class="i" cx="197.5" cy="197.5" r="178"/></g><g class="g" transform="translate(177 2159)"><circle class="h" cx="138.5" cy="138.5" r="138.5"/><circle class="i" cx="138.5" cy="138.5" r="119"/></g><g class="g" transform="translate(47 2029)"><circle class="h" cx="268.5" cy="268.5" r="268.5"/><circle class="i" cx="268.5" cy="268.5" r="249"/></g></g></g></g></g></svg>