<svg xmlns="http://www.w3.org/2000/svg" xmlns:xlink="http://www.w3.org/1999/xlink" width="140" height="551" viewBox="0 0 140 551"><defs><style>.a{fill:#fff;stroke:#707070;}.b{clip-path:url(#a);}.c,.d{fill:none;}.c{stroke:#ff3c68;stroke-linecap:round;stroke-width:2px;stroke-dasharray:0 8;}.e,.f{fill:#fe5e5c;}.e{opacity:0.42;}.g{stroke:none;}.h{filter:url(#v);}.i{filter:url(#t);}.j{filter:url(#r);}.k{filter:url(#p);}.l{filter:url(#n);}.m{filter:url(#l);}.n{filter:url(#j);}.o{filter:url(#h);}.p{filter:url(#f);}.q{filter:url(#d);}.r{filter:url(#b);}</style><clipPath id="a"><rect class="a" width="140" height="551" transform="translate(-20881 -10249)"/></clipPath><filter id="b" x="-174.977" y="301.701" width="154.253" height="154.253" filterUnits="userSpaceOnUse"><feOffset dy="3" input="SourceAlpha"/><feGaussianBlur stdDeviation="11" result="c"/><feFlood flood-opacity="0.071"/><feComposite operator="in" in2="c"/><feComposite in="SourceGraphic"/></filter><filter id="d" x="-342.215" y="298.711" width="154.253" height="154.253" filterUnits="userSpaceOnUse"><feOffset dy="3" input="SourceAlpha"/><feGaussianBlur stdDeviation="11" result="e"/><feFlood flood-opacity="0.071"/><feComposite operator="in" in2="e"/><feComposite in="SourceGraphic"/></filter><filter id="f" x="-87.477" y="91.021" width="154.253" height="154.253" filterUnits="userSpaceOnUse"><feOffset dy="3" input="SourceAlpha"/><feGaussianBlur stdDeviation="11" result="g"/><feFlood flood-opacity="0.071"/><feComposite operator="in" in2="g"/><feComposite in="SourceGraphic"/></filter><filter id="h" x="-427.016" y="99.748" width="153.815" height="153.354" filterUnits="userSpaceOnUse"><feOffset dy="3" input="SourceAlpha"/><feGaussianBlur stdDeviation="11" result="i"/><feFlood flood-opacity="0.071"/><feComposite operator="in" in2="i"/><feComposite in="SourceGraphic"/></filter><filter id="j" x="-384.445" y="499.549" width="153.815" height="153.354" filterUnits="userSpaceOnUse"><feOffset dy="3" input="SourceAlpha"/><feGaussianBlur stdDeviation="11" result="k"/><feFlood flood-opacity="0.071"/><feComposite operator="in" in2="k"/><feComposite in="SourceGraphic"/></filter><filter id="l" x="-19.168" y="12.525" width="153.354" height="153.814" filterUnits="userSpaceOnUse"><feOffset dy="3" input="SourceAlpha"/><feGaussianBlur stdDeviation="11" result="m"/><feFlood flood-opacity="0.071"/><feComposite operator="in" in2="m"/><feComposite in="SourceGraphic"/></filter><filter id="n" x="4.902" y="36.596" width="104.778" height="104.777" filterUnits="userSpaceOnUse"><feOffset dy="3" input="SourceAlpha"/><feGaussianBlur stdDeviation="11" result="o"/><feFlood flood-opacity="0.071"/><feComposite operator="in" in2="o"/><feComposite in="SourceGraphic"/></filter><filter id="p" x="-81.905" y="405.566" width="99.868" height="100.328" filterUnits="userSpaceOnUse"><feOffset dy="3" input="SourceAlpha"/><feGaussianBlur stdDeviation="11" result="q"/><feFlood flood-opacity="0.071"/><feComposite operator="in" in2="q"/><feComposite in="SourceGraphic"/></filter><filter id="r" x="-72.545" y="414.926" width="80.709" height="80.709" filterUnits="userSpaceOnUse"><feOffset dy="3" input="SourceAlpha"/><feGaussianBlur stdDeviation="11" result="s"/><feFlood flood-opacity="0.071"/><feComposite operator="in" in2="s"/><feComposite in="SourceGraphic"/></filter><filter id="t" x="-244.144" y="29.676" width="106.115" height="106.115" filterUnits="userSpaceOnUse"><feOffset dy="3" input="SourceAlpha"/><feGaussianBlur stdDeviation="11" result="u"/><feFlood flood-opacity="0.071"/><feComposite operator="in" in2="u"/><feComposite in="SourceGraphic"/></filter><filter id="v" x="-232.11" y="41.709" width="82.046" height="82.046" filterUnits="userSpaceOnUse"><feOffset dy="3" input="SourceAlpha"/><feGaussianBlur stdDeviation="11" result="w"/><feFlood flood-opacity="0.071"/><feComposite operator="in" in2="w"/><feComposite in="SourceGraphic"/></filter></defs><g transform="translate(0 -8811)"><g class="b" transform="translate(20881 19060)"><g transform="matrix(0.438, 0.899, -0.899, 0.438, -11950.652, 8057.961)"><g transform="translate(-20492 -23.403)"><g class="c" transform="translate(264.902 266.403)"><circle class="g" cx="43.5" cy="43.5" r="43.5"/><circle class="d" cx="43.5" cy="43.5" r="42.5"/></g><g class="c" transform="translate(191.902 192.403)"><circle class="g" cx="117.5" cy="117.5" r="117.5"/><circle class="d" cx="117.5" cy="117.5" r="116.5"/></g><g class="c" transform="translate(93.902 95.403)"><circle class="g" cx="215" cy="215" r="215"/><circle class="d" cx="215" cy="215" r="214"/></g><g class="c" transform="translate(-0.098 0.402)"><circle class="g" cx="309.5" cy="309.5" r="309.5"/><circle class="d" cx="309.5" cy="309.5" r="308.5"/></g></g><g class="r" transform="matrix(0.44, -0.9, 0.9, 0.44, -20368.99, 1.3)"><circle class="d" cx="33" cy="33" r="33" transform="matrix(0.44, 0.9, -0.9, 0.44, -82.66, 331.7)"/></g><g class="q" transform="matrix(0.44, -0.9, 0.9, 0.44, -20368.99, 1.3)"><circle class="d" cx="33" cy="33" r="33" transform="matrix(0.44, 0.9, -0.9, 0.44, -249.89, 328.71)"/></g><g class="p" transform="matrix(0.44, -0.9, 0.9, 0.44, -20368.99, 1.3)"><circle class="d" cx="33" cy="33" r="33" transform="matrix(0.44, 0.9, -0.9, 0.44, 4.84, 121.02)"/></g><g class="o" transform="matrix(0.44, -0.9, 0.9, 0.44, -20368.99, 1.3)"><ellipse class="d" cx="32.5" cy="33" rx="32.5" ry="33" transform="matrix(0.44, 0.9, -0.9, 0.44, -334.7, 129.75)"/></g><g class="n" transform="matrix(0.44, -0.9, 0.9, 0.44, -20368.99, 1.3)"><ellipse class="d" cx="32.5" cy="33" rx="32.5" ry="33" transform="matrix(0.44, 0.9, -0.9, 0.44, -292.13, 529.55)"/></g><g class="m" transform="matrix(0.44, -0.9, 0.9, 0.44, -20368.99, 1.3)"><ellipse class="e" cx="33" cy="32.5" rx="33" ry="32.5" transform="matrix(0.44, 0.9, -0.9, 0.44, 72.25, 42.53)"/></g><g class="l" transform="matrix(0.44, -0.9, 0.9, 0.44, -20368.99, 1.3)"><circle class="f" cx="14.5" cy="14.5" r="14.5" transform="matrix(0.44, 0.9, -0.9, 0.44, 63.97, 66.59)"/></g><g class="k" transform="matrix(0.44, -0.9, 0.9, 0.44, -20368.99, 1.3)"><ellipse class="e" cx="13" cy="12.5" rx="13" ry="12.5" transform="matrix(0.44, 0.9, -0.9, 0.44, -26.44, 435.57)"/></g><g class="j" transform="matrix(0.44, -0.9, 0.9, 0.44, -20368.99, 1.3)"><circle class="f" cx="5.5" cy="5.5" r="5.5" transform="matrix(0.44, 0.9, -0.9, 0.44, -29.66, 444.93)"/></g><g class="i" transform="matrix(0.44, -0.9, 0.9, 0.44, -20368.99, 1.3)"><circle class="e" cx="15" cy="15" r="15" transform="matrix(0.44, 0.9, -0.9, 0.44, -184.18, 59.68)"/></g><g class="h" transform="matrix(0.44, -0.9, 0.9, 0.44, -20368.99, 1.3)"><circle class="f" cx="6" cy="6" r="6" transform="matrix(0.44, 0.9, -0.9, 0.44, -188.32, 71.71)"/></g></g></g></g></svg>