<svg id="Group_78" data-name="Group 78" xmlns="http://www.w3.org/2000/svg" width="156.897" height="156.897" viewBox="0 0 156.897 156.897">
  <g id="Group_404" data-name="Group 404">
    <g id="Ellipse_53" data-name="Ellipse 53" fill="none" stroke="#fff" stroke-width="1">
      <circle cx="78.449" cy="78.449" r="78.449" stroke="none"/>
      <circle cx="78.449" cy="78.449" r="77.949" fill="none"/>
    </g>
    <g id="customer" transform="translate(38.353 44.164)">
      <path id="Path_27" data-name="Path 27" d="M182.29,59.58A13.29,13.29,0,1,0,169,46.29,13.305,13.305,0,0,0,182.29,59.58Zm0-22a8.707,8.707,0,1,1-8.707,8.707A8.717,8.717,0,0,1,182.29,37.583Z" transform="translate(-143.184 -33)" fill="#fff"/>
      <path id="Path_28" data-name="Path 28" d="M385.4,113.8a8.4,8.4,0,1,0-8.4-8.4A8.411,8.411,0,0,0,385.4,113.8Zm0-12.221a3.819,3.819,0,1,1-3.819,3.819A3.823,3.823,0,0,1,385.4,101.583Z" transform="translate(-319.41 -87.223)" fill="#fff"/>
      <path id="Path_29" data-name="Path 29" d="M67.84,241H64.3a10.388,10.388,0,0,0-9.424,6.011A18.442,18.442,0,0,0,41.242,241H36.971a18.442,18.442,0,0,0-13.63,6.011A10.388,10.388,0,0,0,13.916,241H10.372A10.353,10.353,0,0,0,0,251.31v16.683a4.489,4.489,0,0,0,4.493,4.476H18.505a5.356,5.356,0,0,0,5.329,4.888H54.379a5.356,5.356,0,0,0,5.329-4.888H73.559a4.649,4.649,0,0,0,4.653-4.635V251.31A10.353,10.353,0,0,0,67.84,241ZM4.583,251.31a5.765,5.765,0,0,1,5.79-5.727h3.544a5.765,5.765,0,0,1,5.79,5.727v1.569c-1.541,4.012-1.222,6.416-1.222,15.007H4.583Zm50.563,20.7a.768.768,0,0,1-.767.767H23.834a.768.768,0,0,1-.767-.767v-12.52a13.92,13.92,0,0,1,13.9-13.9h4.271a13.92,13.92,0,0,1,13.9,13.9Zm18.484-4.173c0,.079.854.052-13.9.052,0-8.654.316-11-1.222-15.007V251.31a5.765,5.765,0,0,1,5.79-5.727H67.84a5.765,5.765,0,0,1,5.79,5.727Z" transform="translate(0 -209.226)" fill="#fff"/>
      <path id="Path_30" data-name="Path 30" d="M33.4,113.8a8.4,8.4,0,1,0-8.4-8.4A8.411,8.411,0,0,0,33.4,113.8Zm0-12.221a3.819,3.819,0,1,1-3.819,3.819A3.823,3.823,0,0,1,33.4,101.583Z" transform="translate(-21.181 -87.223)" fill="#fff"/>
    </g>
  </g>
</svg>
