<svg xmlns="http://www.w3.org/2000/svg" width="157" height="157" viewBox="0 0 157 157">
  <g id="Group_403" data-name="Group 403" transform="translate(-119 -4858)">
    <g id="Ellipse_53" data-name="Ellipse 53" transform="translate(119 4858)" fill="none" stroke="#fff" stroke-width="1">
      <circle cx="78.5" cy="78.5" r="78.5" stroke="none"/>
      <circle cx="78.5" cy="78.5" r="78" fill="none"/>
    </g>
    <g id="trophy" transform="translate(169.472 4902.215)">
      <g id="Group_84" data-name="Group 84" transform="translate(0 0)">
        <path id="Path_31" data-name="Path 31" d="M232.175,452h-5.628a1.353,1.353,0,1,0,0,2.705h5.628a1.353,1.353,0,0,0,0-2.705Z" transform="translate(-200.958 -390.867)" fill="#fff"/>
        <path id="Path_32" data-name="Path 32" d="M101.453,10.82H93.338V7.882A4.057,4.057,0,0,0,91.985,0H56.82a4.057,4.057,0,0,0-1.353,7.882V10.82H47.353A1.353,1.353,0,0,0,46,12.173V21.64A10.832,10.832,0,0,0,56.82,32.46h1.144q.39.68.837,1.332a19.027,19.027,0,0,0,7.516,6.41,4.049,4.049,0,0,0,3.037,4.409c-1.625,5.415-4.513,11.112-7.934,11.112H58.173a1.353,1.353,0,0,0-1.342,1.185l-1.353,10.82a1.352,1.352,0,0,0,1.342,1.52H91.985a1.352,1.352,0,0,0,1.342-1.52l-1.353-10.82a1.352,1.352,0,0,0-1.342-1.185H87.387c-2.071,0-3.82-2.174-4.923-4a32.135,32.135,0,0,1-3.011-7.114A4.049,4.049,0,0,0,82.489,40.2a19.026,19.026,0,0,0,7.517-6.411q.448-.65.836-1.331h1.144a10.832,10.832,0,0,0,10.82-10.82V12.173a1.353,1.353,0,0,0-1.353-1.353ZM48.705,21.64V13.525h6.763v9.569a18.773,18.773,0,0,0,1.217,6.658A8.123,8.123,0,0,1,48.705,21.64Zm41.748,44.9h-32.1l1.014-8.115H89.439Zm-8.4-10.82h-15.3a16.547,16.547,0,0,0,1.9-2.588,35.89,35.89,0,0,0,3.484-8.4h4.536a35.9,35.9,0,0,0,3.478,8.391A16.559,16.559,0,0,0,82.055,55.723ZM78.46,42.029H70.345a1.353,1.353,0,1,1,0-2.705H78.46a1.353,1.353,0,1,1,0,2.705Zm2.833-4.253a4.044,4.044,0,0,0-2.833-1.157H70.345a4.044,4.044,0,0,0-2.833,1.157,16.181,16.181,0,0,1-9.339-14.682V8.115H68.316a1.353,1.353,0,1,0,0-2.705H56.82a1.353,1.353,0,0,1,0-2.705H91.985a1.353,1.353,0,0,1,0,2.705h-11.5a1.353,1.353,0,0,0,0,2.705H90.633V23.094A16.181,16.181,0,0,1,81.293,37.776ZM100.1,21.64a8.123,8.123,0,0,1-7.979,8.112,18.772,18.772,0,0,0,1.217-6.658V13.525H100.1Z" transform="translate(-46 0)" fill="#fff"/>
        <path id="Path_33" data-name="Path 33" d="M204.435,100.228l-3.033-.537-1.506-2.771h0a2.7,2.7,0,0,0-4.754.021l-1.448,2.719-3.042.565a2.7,2.7,0,0,0-1.516,4.541l2.14,2.219-.393,2.993a2.7,2.7,0,0,0,1.778,3.044,2.687,2.687,0,0,0,2.066-.125l2.768-1.347,2.849,1.357a2.7,2.7,0,0,0,3.84-2.813l-.427-3.052,2.092-2.206a2.7,2.7,0,0,0-1.412-4.607Zm-.527,2.72-2.564,2.7a1.352,1.352,0,0,0-.358,1.118l.52,3.695-3.438-1.638a1.353,1.353,0,0,0-1.174.005l-3.352,1.634c.007-.032.012-.064.016-.1l.483-3.679a1.352,1.352,0,0,0-.367-1.115L191.08,102.9l.046-.008,3.7-.688a1.353,1.353,0,0,0,.947-.694l1.747-3.289,1.815,3.338a1.352,1.352,0,0,0,.952.686l3.678.649c-.02.019-.04.038-.059.058Z" transform="translate(-169.122 -82.592)" fill="#fff"/>
        <path id="Path_34" data-name="Path 34" d="M247.35,42.705a1.353,1.353,0,1,0,0-2.705h0a1.353,1.353,0,0,0,0,2.705Z" transform="translate(-218.947 -34.59)" fill="#fff"/>
      </g>
    </g>
  </g>
</svg>
