<svg xmlns="http://www.w3.org/2000/svg" xmlns:xlink="http://www.w3.org/1999/xlink" width="696.43" height="672.21" viewBox="0 0 696.43 672.21">
  <defs>
    <clipPath id="clip-path">
      <rect id="Rectangle_458" data-name="Rectangle 458" width="696.43" height="672.21" fill="none" stroke="#707070" stroke-width="1"/>
    </clipPath>
    <linearGradient id="linear-gradient" x1="0.572" y1="-0.692" x2="0.463" y2="0.5" gradientUnits="objectBoundingBox">
      <stop offset="0" stop-color="#fe953a"/>
      <stop offset="1" stop-color="#ff5959"/>
    </linearGradient>
  </defs>
  <g id="Group_690" data-name="Group 690" transform="translate(3781 14684)">
    <g id="Mask_Group_124" data-name="Mask Group 124" transform="translate(-3781 -14684)" clip-path="url(#clip-path)">
      <g id="Group_676" data-name="Group 676" transform="translate(-338.02 -67.839)">
        <path id="Path_295" data-name="Path 295" d="M-6553.839-5659.225c55.67-9.806,0,106.956,0,106.956s-88.736,255.064-112.827,343.769-102.968,107.638-102.968,107.638L-7223-5020.876v-638.349Z" transform="translate(7563.046 5727.008)" fill="url(#linear-gradient)"/>
        <g id="Group_681" data-name="Group 681" transform="matrix(0.174, -0.985, 0.985, 0.174, 0, 617.76)">
          <g id="Group_25" data-name="Group 25" transform="translate(0 0)">
            <g id="Group_24" data-name="Group 24" transform="translate(0 0)" opacity="0.19">
              <g id="Path_308" data-name="Path 308" transform="translate(82.932 85.971)" fill="none" opacity="0.32">
                <path d="M229.154-.007C356.566.842,460.543,108.6,461.392,240.684S359.643,479.148,232.231,478.3.842,369.688-.007,237.607,101.742-.857,229.154-.007Z" stroke="none"/>
                <path d="M 227.6387634277344 38.98779296875 C 178.3434753417969 38.98779296875 131.7918701171875 58.5164794921875 96.55926513671875 93.97637939453125 C 59.08416748046875 131.6932983398438 38.63967895507812 182.61328125 38.99176025390625 237.3563842773438 C 39.70346069335938 348.0012817382812 126.5067749023438 438.5924682617188 232.4929656982422 439.2991943359375 L 233.7457733154297 439.3033752441406 C 283.045654296875 439.3033752441406 329.5986633300781 419.77587890625 364.8290710449219 384.3180847167969 C 402.3017578125 346.6035766601562 422.7450561523438 295.682373046875 422.3928833007812 240.9346771240234 C 421.6812744140625 130.2898864746094 334.8779602050781 39.69866943359375 228.8957672119141 38.99197387695312 L 227.6387634277344 38.98779296875 M 227.6387481689453 -0.012176513671875 C 228.1511840820312 -0.012176513671875 228.6408081054688 -0.010528564453125 229.1540679931641 -0.007110595703125 C 356.5659790039062 0.842498779296875 460.5425720214844 108.6034851074219 461.3920593261719 240.6838836669922 C 462.2416687011719 372.7642822265625 359.6401672363281 479.1477661132812 232.2306671142578 478.2982788085938 C 104.8187561035156 477.4486694335938 0.8421630859375 369.6875915527344 -0.0074462890625 237.6072845458984 C -0.853515625 106.0589599609375 100.9404602050781 -0.012176513671875 227.6387481689453 -0.012176513671875 Z" stroke="none" fill="#f3f3f3"/>
              </g>
              <g id="Path_309" data-name="Path 309" transform="translate(151.848 157.412)" fill="none" opacity="0.32">
                <path d="M160.7,0c89.35.6,162.265,76.165,162.861,168.788s-71.353,167.227-160.7,166.631S.591,259.249-.005,166.626,71.348-.6,160.7,0Z" stroke="none"/>
                <path d="M 159.6351928710938 38.991455078125 C 128.1922760009766 38.991455078125 98.48236083984375 51.4649658203125 75.97834777832031 74.1141357421875 C 51.90185546875 98.34605407714844 38.76718139648438 131.1116333007812 38.9940185546875 166.3750457763672 C 39.45236206054688 237.6259765625 95.13302612304688 295.9617919921875 163.9178466796875 296.4178771972656 C 195.3641052246094 296.4178771972656 225.0750122070312 283.9452209472656 247.5776062011719 261.2973937988281 C 271.6525268554688 237.067138671875 284.7861938476562 204.3007965087891 284.5593566894531 169.0342254638672 C 284.1010131835938 97.78321838378906 228.4204406738281 39.44747924804688 160.4361114501953 38.994140625 L 159.6351928710938 38.991455078125 M 159.6352233886719 -0.00848388671875 C 159.9945831298828 -0.00848388671875 160.3380126953125 -0.007354736328125 160.6979370117188 -0.00494384765625 C 250.047607421875 0.590789794921875 322.9627685546875 76.15997314453125 323.5585327148438 168.7833862304688 C 324.1543579101562 261.4068908691406 252.2039489746094 336.0099792480469 162.8554382324219 335.414306640625 C 73.50576782226562 334.8183898925781 0.590606689453125 259.2493896484375 -0.005157470703125 166.6258850097656 C -0.59857177734375 74.37548828125 70.7860107421875 -0.00848388671875 159.6352233886719 -0.00848388671875 Z" stroke="none" fill="#f3f3f3"/>
              </g>
              <g id="Path_310" data-name="Path 310" transform="translate(0 0)" fill="none" opacity="0.32">
                <path d="M311.534-.01C484.749,1.145,626.1,147.646,627.26,327.208S488.932,651.4,315.716,650.243,1.145,502.588-.01,323.026,138.318-1.165,311.534-.01Z" stroke="none"/>
                <path d="M 309.4736633300781 38.98345947265625 C 238.688720703125 38.98345947265625 171.8681335449219 67.00067138671875 121.3209533691406 117.8739624023438 C 67.72552490234375 171.8152465820312 38.48626708984375 244.5837097167969 38.98919677734375 322.774658203125 C 40.00579833984375 480.82568359375 164.2616577148438 610.232666015625 315.9791870117188 611.2442626953125 L 317.7762451171875 611.2501831054688 C 388.5548400878906 611.2501831054688 455.37353515625 583.2313232421875 505.9235534667969 532.355224609375 C 559.5222778320312 478.41064453125 588.763427734375 405.6438293457031 588.2606201171875 327.4590148925781 C 587.243896484375 169.4080505371094 462.988037109375 40.0010986328125 311.273193359375 38.98944091796875 L 309.4736633300781 38.98345947265625 M 309.4736328125 -0.0166015625 C 310.1597595214844 -0.0166015625 310.8463439941406 -0.0142822265625 311.5335388183594 -0.00970458984375 C 484.7492065429688 1.14532470703125 626.104736328125 147.6456909179688 627.259765625 327.2081909179688 C 628.4147338867188 506.7705688476562 488.9197082519531 651.3983764648438 315.7161560058594 650.2433471679688 C 142.5003662109375 649.0884399414062 1.14495849609375 502.5879516601562 -0.00994873046875 323.0254821777344 C -1.16046142578125 144.1755065917969 137.2133178710938 -0.0166015625 309.4736328125 -0.0166015625 Z" stroke="none" fill="#f3f3f3"/>
              </g>
            </g>
          </g>
        </g>
      </g>
    </g>
  </g>
</svg>
