<svg xmlns="http://www.w3.org/2000/svg" xmlns:xlink="http://www.w3.org/1999/xlink" width="359.41" height="725.609" viewBox="0 0 359.41 725.609">
  <defs>
    <clipPath id="clip-path">
      <path id="Path_321" data-name="Path 321" d="M20117-100.438h359.41v725.61H20117Z" transform="translate(-22579.908 -20842.094)" fill="none" stroke="#707070" stroke-width="1"/>
    </clipPath>
    <linearGradient id="linear-gradient" x1="0.724" y1="0.74" x2="0.586" y2="-0.696" gradientUnits="objectBoundingBox">
      <stop offset="0" stop-color="#ff3c68"/>
      <stop offset="1" stop-color="#fe953a"/>
    </linearGradient>
  </defs>
  <g id="Mask_Group_131" data-name="Mask Group 131" transform="translate(2462.912 20942.532)" clip-path="url(#clip-path)">
    <g id="Group_713" data-name="Group 713" transform="translate(-2452.896 -20970.223)">
      <g id="Group_704" data-name="Group 704" transform="translate(88.276)">
        <path id="Path_326" data-name="Path 326" d="M-4923.414-11132l-241.324,104.273s-117.47,55.993-65.014,180.1,135.538,360.208,135.538,360.208,10.146,41.275,61.709,75.827,96.97,47.393,96.97,47.393h12.122Z" transform="translate(5243.24 11132)" fill="url(#linear-gradient)"/>
      </g>
      <g id="Group_712" data-name="Group 712" transform="translate(0 136.27)" opacity="0.19">
        <g id="Ellipse_209" data-name="Ellipse 209" transform="translate(65.629 75.107)" fill="none" stroke="#f3f3f3" stroke-width="39" opacity="0.32">
          <ellipse cx="182.559" cy="208.924" rx="182.559" ry="208.924" stroke="none"/>
          <ellipse cx="182.559" cy="208.924" rx="163.059" ry="189.424" fill="none"/>
        </g>
        <g id="Ellipse_210" data-name="Ellipse 210" transform="translate(120.166 137.52)" fill="none" stroke="#f3f3f3" stroke-width="39" opacity="0.32">
          <ellipse cx="128.023" cy="146.511" rx="128.023" ry="146.511" stroke="none"/>
          <ellipse cx="128.023" cy="146.511" rx="108.523" ry="127.011" fill="none"/>
        </g>
        <g id="Ellipse_211" data-name="Ellipse 211" fill="none" stroke="#f3f3f3" stroke-width="39" opacity="0.32">
          <ellipse cx="248.188" cy="284.031" rx="248.188" ry="284.031" stroke="none"/>
          <ellipse cx="248.188" cy="284.031" rx="228.688" ry="264.531" fill="none"/>
        </g>
      </g>
    </g>
  </g>
</svg>
