<svg id="Group_96" data-name="Group 96" xmlns="http://www.w3.org/2000/svg" width="22.474" height="22.474" viewBox="0 0 22.474 22.474">
  <ellipse id="Ellipse_54" data-name="Ellipse 54" cx="11.237" cy="11.237" rx="11.237" ry="11.237" fill="#fff" opacity="0.3"/>
  <g id="bookmark" transform="translate(7.756 6.825)">
    <g id="Group_15" data-name="Group 15" transform="translate(0)">
      <path id="Path_8" data-name="Path 8" d="M87,0H80.63a.3.3,0,0,0-.3.3V9.848a.3.3,0,0,0,.507.21l2.973-2.973,2.973,2.973a.3.3,0,0,0,.507-.21V.3A.3.3,0,0,0,87,0ZM83.814,6.367a.3.3,0,0,0-.21.087L80.927,9.13V.594H86.7V9.13L84.024,6.454A.3.3,0,0,0,83.814,6.367Z" transform="translate(-80.333)" fill="#fff"/>
    </g>
  </g>
</svg>
