<svg xmlns="http://www.w3.org/2000/svg" xmlns:xlink="http://www.w3.org/1999/xlink" width="71" height="71" viewBox="0 0 71 71">
  <defs>
    <linearGradient id="linear-gradient" x1="1.371" y1="-0.084" x2="0.114" y2="0.801" gradientUnits="objectBoundingBox">
      <stop offset="0" stop-color="#ff5959"/>
      <stop offset="1" stop-color="#fe953a"/>
    </linearGradient>
  </defs>
  <g id="Group_439" data-name="Group 439" transform="translate(-524 -1881)">
    <circle id="Ellipse_58" data-name="Ellipse 58" cx="35.5" cy="35.5" r="35.5" transform="translate(524 1881)" fill="url(#linear-gradient)"/>
    <g id="compass" transform="translate(543 1900)">
      <g id="Group_156" data-name="Group 156">
        <g id="Group_155" data-name="Group 155">
          <path id="Path_63" data-name="Path 63" d="M16.218,0A16.218,16.218,0,1,0,32.437,16.218,16.218,16.218,0,0,0,16.218,0Zm.658,31.105V28.492a.658.658,0,0,0-1.315,0v2.613A14.921,14.921,0,0,1,1.332,16.876H3.945a.658.658,0,1,0,0-1.315H1.332A14.921,14.921,0,0,1,15.561,1.332V3.945a.658.658,0,1,0,1.315,0V1.332A14.921,14.921,0,0,1,31.105,15.561H28.492a.658.658,0,1,0,0,1.315h2.613A14.921,14.921,0,0,1,16.876,31.105Z" fill="#fff"/>
        </g>
      </g>
      <g id="Group_158" data-name="Group 158" transform="translate(7.152 7.082)">
        <g id="Group_157" data-name="Group 157">
          <path id="Path_64" data-name="Path 64" d="M130.5,111.789a1.547,1.547,0,0,0-.536.113l-10.667,4.03a4.436,4.436,0,0,0-2.259,2.26l-4.03,10.667c-.265.7-.047,1.133.484,1.133a1.547,1.547,0,0,0,.536-.113l10.667-4.03a4.436,4.436,0,0,0,2.259-2.26l4.03-10.667C131.248,112.222,131.031,111.789,130.5,111.789Zm-6.269,12.83-9.584,3.621,3.621-9.584a1.925,1.925,0,0,1,.2-.365l1.257,1.257a2.627,2.627,0,0,0,3.615,3.615l1.258,1.258A1.884,1.884,0,0,1,124.23,124.619Zm-3.585-3.694a1.315,1.315,0,1,1,1.315,1.315A1.317,1.317,0,0,1,120.645,120.925Zm5.079,2.2a1.9,1.9,0,0,1-.2.366l-1.274-1.275a2.628,2.628,0,0,0-3.581-3.581l-1.274-1.274a1.89,1.89,0,0,1,.366-.2l9.583-3.621Z" transform="translate(-112.894 -111.789)" fill="#fff"/>
        </g>
      </g>
    </g>
  </g>
</svg>
