<svg id="Group_97" data-name="Group 97" xmlns="http://www.w3.org/2000/svg" width="22.474" height="22.474" viewBox="0 0 22.474 22.474">
  <ellipse id="Ellipse_55" data-name="Ellipse 55" cx="11.237" cy="11.237" rx="11.237" ry="11.237" transform="translate(0)" fill="#fff" opacity="0.3"/>
  <g id="like" transform="translate(5.254 5.503)">
    <g id="Group_12" data-name="Group 12" transform="translate(0 0)">
      <g id="Group_11" data-name="Group 11" transform="translate(0 0)">
        <path id="Path_6" data-name="Path 6" d="M11.966,17.522a1.108,1.108,0,0,0-.325-.785,1.238,1.238,0,0,0,.319-.952,1.289,1.289,0,0,0-1.3-1.13H7.58a7.168,7.168,0,0,0,.4-1.994,2.038,2.038,0,0,0-1.5-1.994,1.566,1.566,0,0,0-.9.3.249.249,0,0,0-.094.195v1.691L4.048,15.967,3.988,16v-.1a.249.249,0,0,0-.249-.249H1.246A1.248,1.248,0,0,0,0,16.9v3.989a1.247,1.247,0,0,0,1.246,1.246h1.5a1.249,1.249,0,0,0,1.173-.824,3.25,3.25,0,0,0,1.32.326H9.811a1.147,1.147,0,0,0,1.13-.87,1.125,1.125,0,0,0-.09-.749,1.118,1.118,0,0,0,.5-1.5A1.117,1.117,0,0,0,11.966,17.522Zm-1.051.615a.249.249,0,0,0-.143.429.618.618,0,0,1-.355,1.066.249.249,0,0,0-.143.429.616.616,0,0,1,.18.595.645.645,0,0,1-.643.48H5.235a2.363,2.363,0,0,1-1.319-.426.25.25,0,0,0-.426.176.749.749,0,0,1-.748.748h-1.5A.749.749,0,0,1,.5,20.887V16.9a.749.749,0,0,1,.748-.748H3.49V16.4a.25.25,0,0,0,.119.212.255.255,0,0,0,.242.01l.5-.249a.249.249,0,0,0,.115-.118l1.5-3.241a.254.254,0,0,0,.023-.1V11.3a1.051,1.051,0,0,1,.5-.135,1.646,1.646,0,0,1,1,1.5A7.763,7.763,0,0,1,7,14.816a.249.249,0,0,0,.233.338H10.66a.787.787,0,0,1,.8.678.745.745,0,0,1-.355.705.25.25,0,0,0,.017.434.617.617,0,0,1-.211,1.166Z" transform="translate(0 -10.667)" fill="#fff"/>
      </g>
    </g>
    <g id="Group_14" data-name="Group 14" transform="translate(3.49 5.484)">
      <g id="Group_13" data-name="Group 13" transform="translate(0 0)">
        <path id="Path_7" data-name="Path 7" d="M149.582,245.333a.249.249,0,0,0-.249.249v4.487a.249.249,0,1,0,.5,0v-4.487A.249.249,0,0,0,149.582,245.333Z" transform="translate(-149.333 -245.333)" fill="#fff"/>
      </g>
    </g>
  </g>
</svg>
