<svg xmlns="http://www.w3.org/2000/svg" xmlns:xlink="http://www.w3.org/1999/xlink" width="71" height="71" viewBox="0 0 71 71">
  <defs>
    <linearGradient id="linear-gradient" x1="1.266" y1="0.057" x2="0.112" y2="0.865" gradientUnits="objectBoundingBox">
      <stop offset="0" stop-color="#ff5959"/>
      <stop offset="1" stop-color="#fe953a"/>
    </linearGradient>
  </defs>
  <g id="Group_440" data-name="Group 440" transform="translate(-851 -1881)">
    <circle id="Ellipse_59" data-name="Ellipse 59" cx="35.5" cy="35.5" r="35.5" transform="translate(851 1881)" fill="url(#linear-gradient)"/>
    <g id="pin" transform="translate(789.667 1899)">
      <g id="Group_154" data-name="Group 154" transform="translate(85.333)">
        <path id="Path_62" data-name="Path 62" d="M97,0A11.668,11.668,0,0,0,86.734,17.211l9.628,17.413a.729.729,0,0,0,1.276,0l9.632-17.419A11.669,11.669,0,0,0,97,0Zm0,17.5a5.833,5.833,0,1,1,5.833-5.833A5.84,5.84,0,0,1,97,17.5Z" transform="translate(-85.333)" fill="#fff"/>
      </g>
    </g>
  </g>
</svg>
