<svg xmlns="http://www.w3.org/2000/svg" xmlns:xlink="http://www.w3.org/1999/xlink" width="190" height="528" viewBox="0 0 190 528"><defs><style>.a,.g{fill:#fff;}.b{clip-path:url(#a);}.c{clip-path:url(#b);}.d{clip-path:url(#c);}.e{fill:url(#d);}.f{opacity:0.19;}.g{opacity:0.32;}</style><clipPath id="a"><rect class="a" width="190" height="528"/></clipPath><clipPath id="b"><path class="a" d="M0,0V211.058H425.516V0Z"/></clipPath><clipPath id="c"><rect class="a" width="506.698" height="221.405"/></clipPath><linearGradient id="d" x1="0.5" x2="0.5" y2="1" gradientUnits="objectBoundingBox"><stop offset="0" stop-color="#ff5959"/><stop offset="1" stop-color="#fe953a"/></linearGradient></defs><g class="b"><g class="c" transform="translate(0 515) rotate(-90)"><g class="d" transform="translate(-82.316)"><g transform="matrix(-0.105, 0.995, -0.995, -0.105, 515.15, -45.871)"><path class="e" d="M0,0,130.231,52.858s54.086,9.834,60.233,72.525c0,0,1.843,16.594-10.449,44.867L105.647,357.095s-5.532,25.2-42.409,45.482L0,428.391V0" transform="translate(44.611)"/><g class="f" transform="translate(0 72.425)"><circle class="g" cx="108.775" cy="108.775" r="108.775" transform="translate(39.104 39.104)"/><circle class="g" cx="76.28" cy="76.28" r="76.28" transform="translate(71.599 71.599)"/><circle class="g" cx="147.879" cy="147.879" r="147.879"/></g></g></g></g></g></svg>