<svg xmlns="http://www.w3.org/2000/svg" xmlns:xlink="http://www.w3.org/1999/xlink" width="43.395" height="43.395" viewBox="0 0 43.395 43.395"><defs><style>.a{fill:url(#a);}</style><linearGradient id="a" x1="0.5" x2="0.5" y2="1" gradientUnits="objectBoundingBox"><stop offset="0" stop-color="#ff5355"/><stop offset="1" stop-color="#fe953a"/></linearGradient></defs><g transform="translate(-1184.605 -1061.13)"><path class="a" d="M5.424,10.849H2.712A2.712,2.712,0,0,0,0,13.561V40.682a2.712,2.712,0,0,0,2.712,2.712H5.424a2.712,2.712,0,0,0,2.712-2.712V13.561A2.712,2.712,0,0,0,5.424,10.849Zm35.258,2.712V6.547a2.714,2.714,0,0,0-.794-1.918L36.052.794A2.712,2.712,0,0,0,34.134,0H13.561a2.712,2.712,0,0,0-2.712,2.712v37.97a2.712,2.712,0,0,0,2.712,2.712H40.682a2.712,2.712,0,0,0,2.712-2.712V16.273A2.712,2.712,0,0,0,40.682,13.561ZM24.409,36.614a1.356,1.356,0,0,1-1.356,1.356H20.341a1.356,1.356,0,0,1-1.356-1.356V33.9a1.356,1.356,0,0,1,1.356-1.356h2.712A1.356,1.356,0,0,1,24.409,33.9Zm0-10.849a1.356,1.356,0,0,1-1.356,1.356H20.341a1.356,1.356,0,0,1-1.356-1.356V23.053A1.356,1.356,0,0,1,20.341,21.7h2.712a1.356,1.356,0,0,1,1.356,1.356ZM35.258,36.614A1.356,1.356,0,0,1,33.9,37.97H31.19a1.356,1.356,0,0,1-1.356-1.356V33.9a1.356,1.356,0,0,1,1.356-1.356H33.9A1.356,1.356,0,0,1,35.258,33.9Zm0-10.849A1.356,1.356,0,0,1,33.9,27.122H31.19a1.356,1.356,0,0,1-1.356-1.356V23.053A1.356,1.356,0,0,1,31.19,21.7H33.9a1.356,1.356,0,0,1,1.356,1.356Zm1.356-9.493h-21.7V4.068H32.546V6.78A1.356,1.356,0,0,0,33.9,8.136h2.712Z" transform="translate(1184.605 1061.13)"/></g></svg>