<svg xmlns="http://www.w3.org/2000/svg" xmlns:xlink="http://www.w3.org/1999/xlink" width="1023.243" height="1027.33" viewBox="0 0 1023.243 1027.33">
  <defs>
    <linearGradient id="linear-gradient" x1="0.5" x2="0.5" y2="1" gradientUnits="objectBoundingBox">
      <stop offset="0" stop-color="#ff5959"/>
      <stop offset="1" stop-color="#fe7d46"/>
    </linearGradient>
    <linearGradient id="linear-gradient-2" x2="1" y2="0.678" xlink:href="#linear-gradient"/>
  </defs>
  <g id="Group_18" data-name="Group 18" transform="translate(-6169.51 2135.109)">
    <path id="Path_654" data-name="Path 654" d="M561.15,24.94c14.47,2.99,29.22,5.02,43.38,9.11,101.35,29.3,162.44,97.55,189.18,198.03,21.24,79.79,8.57,156.43-22.88,231.26-15.49,36.87-33.95,72.2-52.88,107.34.9,4.83-2.51,8.07-4.64,11.61-9.89,16.44-19.43,33.09-30.24,48.96-4.45,6.11-7.87,12.88-12.2,19.08-33.95,49.31-69.28,97.59-108.13,143.2-5.75,6.75-11.67,12.92-20.65,15.06-4.92,1.18-9.45,1.27-11.36-4.82-1.24-5.29-.92-10.66-.92-15.99q-.03-191.37,0-382.73c0-5.33-.38-10.7.94-15.93,3.45-7.76,11.16-6.2,17.32-7.44,23.28-4.69,42.3-15.85,56.15-35.37,37.18-52.42,6.74-125.58-56.62-136.42-5.91-1.01-13.1.11-16.68-6.95-1.11-3.58-1.09-7.25-1.09-10.91q-.075-76.41.01-152.83c.01-4.95-.45-10.09,3.21-14.25Q547.1,24.935,561.15,24.94Z" transform="translate(6147.776 -2160.049)" fill="url(#linear-gradient)"/>
    <path id="Path_655" data-name="Path 655" d="M533.1,386.42q.03,210.375.07,420.75c-.3.39-.61.77-.91,1.16-10.58,2.68-17.78-3.22-24.08-10.16-13.11-14.45-24.96-29.96-37.13-45.2-12.92-16.14-24.85-33.04-37.64-49.29-16.71-24.13-34.17-47.74-50.22-72.32-9.93-16.75-20.78-32.93-30.47-49.82-1.95-3.4-4.61-6.52-4.31-10.83-15.88-30.44-32.71-60.39-46.29-92-19.05-44.36-35.35-89.62-38.79-138.14C255.6,231.7,296.02,108.77,412.81,51.84c26.63-12.98,54.8-20.87,84.13-24.77,2.09-.28,4.86.95,6.02-2.13h6.02a2.6,2.6,0,0,0,4.01,0h20.07q.015,90.135.04,180.28c-4.15,4.29-9.92,3.49-15,4.5-43.06,8.57-72.72,43.52-72.72,86.03.01,42.49,29.78,77.63,72.72,86.17C523.17,382.93,528.95,382.13,533.1,386.42Z" transform="translate(6147.776 -2160.049)" fill="url(#linear-gradient-2)"/>
    <path id="Path_656" data-name="Path 656" d="M681.35,630.6l36.6-59.91q56.625.015,113.24.03c16.4.01,26.24,6.8,32.55,21.58q44.325,103.86,88.85,207.65,44.43,103.83,88.78,207.69c8.28,19.45,2.41,33.04-18.7,44.63H533.07a10.785,10.785,0,0,1-2.83-7.27c-.01-16.88-1.38-33.79.81-50.64a7.863,7.863,0,0,1,2.14-3.16c4.06-2.58,8.72-1.59,13.11-2.21,21.09-.05,42.18-.28,63.27.05q65.325-.435,130.64-.14c38.41.56,76.83.09,115.26.19q47.625.135,95.24,0c13.05-.02,13.47-.62,8.21-12.9q-16.77-39.165-33.61-78.28c-7.12-19.63-16.67-38.27-24.01-57.83-28.15-64.56-55.67-129.38-83.23-194.19-3.89-9.14-9.12-12.54-18.85-12.41-31.71.45-63.42.11-95.14.23C696.47,632.75,688.24,636.48,681.35,630.6Z" transform="translate(6147.776 -2160.049)" fill="#bbdbfd"/>
    <path id="Path_657" data-name="Path 657" d="M533.09,992.21l-.03,60.06H43.46c-5.71-5.28-13.92-6.82-17.98-15.06-5.44-11.04-4.55-20.87.07-31.58Q84.53,868.95,143.23,732.15q30.795-71.58,61.59-143.16c5.59-13.04,15.87-18.22,29.33-18.25q57.135-.12,114.27-.03,18.54,29.955,37.08,59.9c-3.98,4.35-9.3,3-14.13,3.02-34.72.13-69.44.34-104.15-.11-9.76-.13-14.92,3.19-18.79,12.35-24.96,59.02-50.32,117.87-75.55,176.78-2.5,5.84-5.3,11.52-7.97,17.27-12.15,30.52-26.21,60.24-38.19,90.86-6.32,15.11-12.85,30.12-19.26,45.18-5.2,12.22-4.69,13,8.27,13.02q60.63.06,121.25.01,111.225-.015,222.44-.05,29.82-.21,59.63-.01C523.91,988.94,529.11,988.13,533.09,992.21Z" transform="translate(6147.776 -2160.049)" fill="#dff3fd"/>
    <path id="Path_658" data-name="Path 658" d="M512.99,24.94c-1.34,2.18-2.68,2.54-4.01,0Z" transform="translate(6147.776 -2160.049)" fill="#f58e7d"/>
    <path id="Path_659" data-name="Path 659" d="M610.12,991.74q-32.475.06-64.96.11c-6.3-3.08-11.43-7.36-14.25-14.02a19.3,19.3,0,0,1-.6-3.53c-1-52.09-.31-104.16-.36-156.22,0-3.66.16-7.4,3.07-10.25l.15-.66c11.25,1.12,18.89-4.97,25.57-12.87A1586.355,1586.355,0,0,0,667.75,650.03a7.47,7.47,0,0,1,1.45-1.28c11.33-7.4,23-14.09,36.27-17.48,34.39-.12,68.77-.06,103.15-.51,6.51-.08,7.53,4.08,9.34,8.3q37.02,86.34,74.03,172.68c3.93,9.18,7.75,18.41,11.63,27.62-4.88,6.34-12.15,9.3-18.92,12.67-51.37,25.59-101.88,52.83-153.06,78.8-34.2,17.36-67.98,35.57-102.17,52.98A96.957,96.957,0,0,1,610.12,991.74Z" transform="translate(6147.776 -2160.049)" fill="#0eaa61"/>
    <path id="Path_661" data-name="Path 661" d="M705.47,631.26c-11.81,6.41-23,14.1-36.27,17.48,3.75-6.25,7.1-12.76,12.15-18.14Z" transform="translate(6147.776 -2160.049)" fill="#f8bc2a"/>
    <path id="Path_662" data-name="Path 662" d="M532.76,978.38c.16.56.32,1.12.49,1.68,2.07,3.98,3.27,7.94-.34,11.76l.18.39q-36.885-.21-73.77-.43c-5.41-1.55-8.92-5.66-12.69-9.43Q380.45,916.17,314.27,850c-10.75-10.75-10.73-10.68-23.81-3.79Q214.77,886.1,138.18,924.23c-3.92,1.95-7.66,5.78-12.85,3.4q18.42-44,36.83-88a56.128,56.128,0,0,1,8.49-5.26c40.33-19.33,79.72-40.52,119.54-60.84,43.98-22.44,88.24-44.35,131.8-67.63,3.96-2.12,7.87-5.47,13.03-3.32q18.615,24.225,37.23,48.46c-8.21,8.16-18.96,12.28-28.89,17.5-21.29,11.2-42.98,21.66-64.5,32.43-13.64,6.82-13.64,6.84-3.17,17.31q74.085,74.1,148.2,148.18C527.43,970,531.18,973.38,532.76,978.38Z" transform="translate(6147.776 -2160.049)" fill="#fdd841"/>
    <path id="Path_663" data-name="Path 663" d="M435.02,702.57Q307.775,767.55,180.48,832.44c-5.81,2.96-11.11,7.63-18.31,7.19,27.92-64.86,56.16-129.59,83.44-194.72,4.6-10.97,9.86-14.55,21.67-14.33,39.39.75,78.81.12,118.21.02Z" transform="translate(6147.776 -2160.049)" fill="#0eaa61"/>
    <path id="Path_664" data-name="Path 664" d="M532.76,978.38q-38.01-37.665-76.01-75.36c-29.78-29.67-59.37-59.53-89.28-89.07-4.9-4.84-5.2-7.17,1.35-10.45,34.57-17.32,68.98-34.95,103.44-52.48,11.62,14.05,23.48,27.91,34.77,42.21,6.8,8.6,15.1,13.69,25.99,14.58Q532.885,893.1,532.76,978.38Z" transform="translate(6147.776 -2160.049)" fill="#5dc882"/>
    <path id="Path_665" data-name="Path 665" d="M610.12,991.74c42.19-22.05,84.32-44.2,126.57-66.12q83.4-43.275,166.93-86.26,11.52,27.87,23.05,55.74c-2.87,6.01-8.99,7.68-14.23,10.32-53.61,26.99-106.52,55.32-159.97,82.62-3.65,1.87-7.57,2.48-11.33,3.75Q675.62,991.76,610.12,991.74Z" transform="translate(6147.776 -2160.049)" fill="#fbbd29"/>
    <path id="Path_666" data-name="Path 666" d="M741.13,991.78c31.73-16.67,63.42-33.42,95.21-49.98,30.06-15.67,60.21-31.14,90.32-46.71,13.94,31.67,27.89,63.34,42.56,96.69Z" transform="translate(6147.776 -2160.049)" fill="#159ae0"/>
    <path id="Path_667" data-name="Path 667" d="M532.91,991.81q.165-5.88.34-11.76a54.408,54.408,0,0,1,11.91,11.8Q539.04,991.835,532.91,991.81Z" transform="translate(6147.776 -2160.049)" fill="#f8ba98"/>
    <path id="Path_668" data-name="Path 668" d="M125.34,927.63q50.865-25.665,101.73-51.35,35.7-18.105,71.24-36.53c4.35-2.26,7.3-2.66,11.26,1.32q74.19,74.685,148.74,149.02a8.133,8.133,0,0,1,1.01,1.69q-64.065.15-128.13.28-110.625.075-221.26.01H96.99C106.75,969.89,116.04,948.76,125.34,927.63Z" transform="translate(6147.776 -2160.049)" fill="#159ae0"/>
  </g>
</svg>
