<svg xmlns="http://www.w3.org/2000/svg" xmlns:xlink="http://www.w3.org/1999/xlink" width="25" height="25" viewBox="0 0 25 25">
  <defs>
    <linearGradient id="linear-gradient" x1="0.5" x2="0.5" y2="1" gradientUnits="objectBoundingBox">
      <stop offset="0" stop-color="#ff5959"/>
      <stop offset="1" stop-color="#fe7d46"/>
    </linearGradient>
    <linearGradient id="linear-gradient-2" x2="1" y2="0.678" xlink:href="#linear-gradient"/>
  </defs>
  <g id="Group_19" data-name="Group 19" transform="translate(-5048 3414)">
    <g id="Group_18" data-name="Group 18" transform="translate(-1121.411 -1278.891)">
      <path id="Path_654" data-name="Path 654" d="M530.523,24.94c.352.073.711.122,1.056.222a6.371,6.371,0,0,1,4.6,4.819,8.519,8.519,0,0,1-.557,5.628c-.377.9-.826,1.757-1.287,2.612.022.118-.061.2-.113.283-.241.4-.473.805-.736,1.191-.108.149-.191.313-.3.464a42.562,42.562,0,0,1-2.631,3.485.967.967,0,0,1-.5.366c-.12.029-.23.031-.276-.117a1.681,1.681,0,0,1-.022-.389q0-4.657,0-9.314a1.567,1.567,0,0,1,.023-.388c.084-.189.272-.151.421-.181a2.12,2.12,0,0,0-.011-4.18c-.144-.025-.319,0-.406-.169a.881.881,0,0,1-.027-.265q0-1.859,0-3.719a.481.481,0,0,1,.078-.347Z" transform="translate(5652.114 -2160.049)" fill="url(#linear-gradient)"/>
      <path id="Path_655" data-name="Path 655" d="M269,33.737q0,5.119,0,10.239L268.98,44a.574.574,0,0,1-.586-.247c-.319-.352-.607-.729-.9-1.1-.314-.393-.6-.8-.916-1.2-.407-.587-.832-1.162-1.222-1.76-.242-.408-.506-.8-.741-1.212a.465.465,0,0,1-.1-.264c-.386-.741-.8-1.47-1.126-2.239a10.412,10.412,0,0,1-.944-3.362,6.987,6.987,0,0,1,3.638-7.026,6.629,6.629,0,0,1,2.047-.6c.051-.007.118.023.147-.052h.146a.063.063,0,0,0,.1,0H269q0,2.193,0,4.387c-.1.1-.241.085-.365.11a2.125,2.125,0,0,0,0,4.19C268.759,33.652,268.9,33.632,269,33.737Z" transform="translate(5912.954 -2160.049)" fill="url(#linear-gradient-2)"/>
      <path id="Path_656" data-name="Path 656" d="M533.5,572.148l.891-1.458h2.756a.773.773,0,0,1,.792.525q1.079,2.527,2.162,5.053t2.16,5.054c.2.473.059.8-.455,1.086H529.887a.262.262,0,0,1-.069-.177,9.468,9.468,0,0,1,.02-1.232.191.191,0,0,1,.052-.077.73.73,0,0,1,.319-.054c.513,0,1.026-.007,1.54,0q1.59-.011,3.179,0c.935.014,1.87,0,2.8,0q1.159,0,2.318,0c.318,0,.328-.015.2-.314q-.408-.953-.818-1.9c-.173-.478-.406-.931-.584-1.407-.685-1.571-1.355-3.148-2.025-4.726a.427.427,0,0,0-.459-.3c-.772.011-1.543,0-2.315.006C533.863,572.2,533.663,572.291,533.5,572.148Z" transform="translate(5652.067 -2692.518)" fill="#bbdbfd"/>
      <path id="Path_657" data-name="Path 657" d="M34.178,580.952v1.462H22.263c-.139-.129-.339-.166-.438-.367a.85.85,0,0,1,0-.768q1.435-3.326,2.864-6.655.749-1.742,1.5-3.484a.706.706,0,0,1,.714-.444q1.39,0,2.781,0l.9,1.458c-.1.106-.226.073-.344.073-.845,0-1.69.008-2.534,0a.423.423,0,0,0-.457.3c-.607,1.436-1.225,2.868-1.839,4.3-.061.142-.129.28-.194.42-.3.743-.638,1.466-.929,2.211-.154.368-.313.733-.469,1.1-.127.3-.114.316.2.317h2.951q2.707,0,5.413,0,.726-.005,1.451,0C33.954,580.872,34.081,580.853,34.178,580.952Z" transform="translate(6147.776 -2692.523)" fill="#dff3fd"/>
      <path id="Path_658" data-name="Path 658" d="M509.078,24.94c-.033.053-.065.062-.1,0Z" transform="translate(5672.387 -2160.049)" fill="#f58e7d"/>
      <path id="Path_659" data-name="Path 659" d="M531.72,639.543l-1.581,0a.672.672,0,0,1-.347-.341.468.468,0,0,1-.015-.086c-.024-1.268-.008-2.535-.009-3.8a.321.321,0,0,1,.075-.249l0-.016a.7.7,0,0,0,.622-.313,38.6,38.6,0,0,0,2.653-3.511.183.183,0,0,1,.035-.031,2.973,2.973,0,0,1,.883-.425c.837,0,1.674,0,2.51-.012.158,0,.183.1.227.2q.9,2.1,1.8,4.2c.1.223.189.448.283.672a1.211,1.211,0,0,1-.46.308c-1.25.623-2.479,1.286-3.725,1.918-.832.422-1.654.866-2.486,1.289A2.361,2.361,0,0,1,531.72,639.543Z" transform="translate(5652.109 -2751.125)" fill="#0eaa61"/>
      <path id="Path_661" data-name="Path 661" d="M670.083,630.616a3.927,3.927,0,0,1-.883.425,2.477,2.477,0,0,1,.3-.441Z" transform="translate(5516.066 -2750.97)" fill="#f8bc2a"/>
      <path id="Path_662" data-name="Path 662" d="M135.245,708.616l.012.041a.224.224,0,0,1-.008.286l0,.01-1.8-.01a.747.747,0,0,1-.309-.229l-3.221-3.221c-.262-.262-.261-.26-.579-.092q-1.842.971-3.706,1.9c-.1.047-.186.141-.313.083l.9-2.141a1.367,1.367,0,0,1,.207-.128c.981-.47,1.94-.986,2.909-1.481,1.07-.546,2.147-1.079,3.207-1.646.1-.052.192-.133.317-.081l.906,1.179a2.733,2.733,0,0,1-.7.426c-.518.273-1.046.527-1.57.789-.332.166-.332.167-.077.421l3.606,3.606A.744.744,0,0,1,135.245,708.616Z" transform="translate(6046.701 -2820.523)" fill="#fdd841"/>
      <path id="Path_663" data-name="Path 663" d="M168.81,632.323q-3.1,1.581-6.194,3.16a.871.871,0,0,1-.446.175c.679-1.578,1.367-3.154,2.031-4.738a.472.472,0,0,1,.527-.349c.959.018,1.918,0,2.877,0Z" transform="translate(6010.758 -2750.942)" fill="#0eaa61"/>
      <path id="Path_664" data-name="Path 664" d="M367.953,756.553q-.925-.917-1.85-1.834c-.725-.722-1.445-1.449-2.173-2.167-.119-.118-.127-.174.033-.254.841-.421,1.679-.85,2.517-1.277.283.342.571.679.846,1.027a.866.866,0,0,0,.632.355Q367.956,754.478,367.953,756.553Z" transform="translate(5813.993 -2868.46)" fill="#5dc882"/>
      <path id="Path_665" data-name="Path 665" d="M610.12,843.068c1.027-.537,2.052-1.076,3.08-1.609q2.03-1.053,4.062-2.1l.561,1.356c-.07.146-.219.187-.346.251-1.3.657-2.592,1.346-3.893,2.011a1.916,1.916,0,0,1-.276.091Z" transform="translate(5573.708 -2954.65)" fill="#fbbd29"/>
      <path id="Path_666" data-name="Path 666" d="M741.13,897.443c.772-.406,1.543-.813,2.317-1.216.732-.381,1.465-.758,2.2-1.137l1.036,2.353Z" transform="translate(5445.887 -3009.024)" fill="#159ae0"/>
      <path id="Path_667" data-name="Path 667" d="M532.91,980.336q0-.143.008-.286a1.324,1.324,0,0,1,.29.287Z" transform="translate(5649.04 -3091.917)" fill="#f8ba98"/>
      <path id="Path_668" data-name="Path 668" d="M97.68,840.237q1.238-.625,2.476-1.25.869-.441,1.734-.889a.2.2,0,0,1,.274.032q1.805,1.818,3.62,3.626a.2.2,0,0,1,.025.041q-1.559,0-3.118.007-2.692,0-5.384,0H96.99Z" transform="translate(6074.352 -2953.379)" fill="#159ae0"/>
    </g>
    <rect id="Rectangle_552" data-name="Rectangle 552" width="25" height="25" transform="translate(5048 -3414)" fill="none"/>
  </g>
</svg>
