<svg xmlns="http://www.w3.org/2000/svg" xmlns:xlink="http://www.w3.org/1999/xlink" width="33.443" height="33.486" viewBox="0 0 33.443 33.486"><defs><style>.a{fill:url(#a);}</style><linearGradient id="a" x1="0.5" x2="0.5" y2="1" gradientUnits="objectBoundingBox"><stop offset="0" stop-color="#ff5355"/><stop offset="1" stop-color="#fe953a"/></linearGradient></defs><g transform="translate(-1461.454 -1071.039)"><path class="a" d="M3.338,9.517a2.464,2.464,0,0,1,.627-1.338L8.982,3.162q.586-.5.878.167l4.056,7.61a1.1,1.1,0,0,1-.209,1.3l-1.84,1.84a2.08,2.08,0,0,0-.585,1.3,6.382,6.382,0,0,0,1.3,3.219,27.493,27.493,0,0,0,2.55,3.346l1.3,1.337c.391.391.891.871,1.506,1.442a25.242,25.242,0,0,0,3.03,2.258,6.782,6.782,0,0,0,3.324,1.4,1.82,1.82,0,0,0,1.338-.544L27.8,25.656a.919.919,0,0,1,1.253-.167L36.369,29.8a.611.611,0,0,1,.334.439.534.534,0,0,1-.167.481l-5.017,5.017a2.457,2.457,0,0,1-1.337.626,10.115,10.115,0,0,1-4.621-.564A20.909,20.909,0,0,1,20.8,33.515q-2.2-1.421-4.077-2.884t-3.01-2.509l-1.087-1.047q-.417-.417-1.108-1.15T9.107,23.043a41.991,41.991,0,0,1-2.969-4.2,24.512,24.512,0,0,1-2.174-4.662A9.917,9.917,0,0,1,3.338,9.517Z" transform="translate(1458.187 1068.092)"/></g></svg>